<svg width="22" height="22" viewBox="0 0 22 22" fill="none" xmlns="http://www.w3.org/2000/svg">
<path d="M7.85436 21.0077C6.08365 21.0077 4.32945 21.0542 2.57836 20.9943C1.00794 20.9396 0.00539762 19.8049 0.00436513 18.2334C0.00333265 16.1695 0.00436513 14.1066 0.00436513 12.0426C0.00436513 11.8578 0.00436513 11.674 0.00436513 11.4242C1.25884 11.4242 2.46272 11.4913 3.65421 11.4004C4.42238 11.3416 5.20604 11.1299 5.92155 10.8377C6.40682 10.6395 6.82498 10.2193 7.20596 9.83414C7.8936 9.13928 8.53168 8.39382 9.19144 7.67108C9.90385 6.89052 11.0953 6.8358 11.8501 7.59571C12.5997 8.35046 13.3131 9.14237 14.0255 9.93326C14.931 10.9389 16.075 11.3973 17.4018 11.42C18.6201 11.4407 19.8395 11.4242 21.1322 11.4242C21.1322 11.6513 21.1322 11.833 21.1322 12.0158C21.1322 14.0797 21.1332 16.1426 21.1322 18.2066C21.1311 19.8018 20.0976 20.9096 18.5179 21.0118C18.3641 21.0222 18.2081 21.0191 18.0543 21.0191C16.4725 21.0191 14.8908 21.0191 13.2223 21.0191C13.2223 20.8363 13.2223 20.6742 13.2223 20.5121C13.2223 19.5147 13.2233 18.5174 13.2223 17.52C13.2202 16.092 12.0349 14.8758 10.6307 14.8603C9.14188 14.8438 7.92354 16.0322 7.91735 17.5097C7.91218 18.6268 7.91115 19.745 7.90702 20.8632C7.90599 20.8921 7.88431 20.9231 7.85436 21.0077ZM10.6183 9.59254C9.63128 9.58118 8.78154 10.3927 8.76708 11.3612C8.75366 12.2698 9.61889 13.166 10.5192 13.1753C11.4959 13.1846 12.3581 12.3596 12.3694 11.4035C12.3798 10.4774 11.5341 9.60286 10.6183 9.59254ZM3.97118 13.9992C3.97118 13.9982 3.97118 13.9982 3.97118 13.9971C3.83386 13.9971 3.69654 13.992 3.56025 13.9982C2.99342 14.0219 2.63205 14.3668 2.63308 14.8809C2.63411 15.4085 2.97586 15.7627 3.53341 15.7864C3.85864 15.8009 4.18697 15.8071 4.50911 15.773C4.99954 15.7214 5.28244 15.3579 5.27108 14.851C5.26076 14.3905 4.95204 14.0498 4.48639 14.0013C4.31603 13.9847 4.14257 13.9992 3.97118 13.9992ZM17.1643 13.9538C17.1622 13.9682 17.1591 13.9827 17.1571 13.9971C17.0373 13.9971 16.9175 13.994 16.7978 13.9982C16.1969 14.0188 15.8603 14.3513 15.8665 14.916C15.8716 15.4261 16.233 15.774 16.7926 15.7895C17.1178 15.7988 17.4472 15.8102 17.7673 15.7689C18.1607 15.7183 18.4229 15.4777 18.4818 15.073C18.5416 14.6517 18.4477 14.2687 18.0078 14.1086C17.7425 14.0116 17.4462 14.0023 17.1643 13.9538ZM3.9433 17.5097C3.78946 17.5097 3.63356 17.5004 3.48075 17.5117C2.98103 17.5489 2.64134 17.8958 2.63205 18.3687C2.62172 18.8581 2.92114 19.2422 3.40641 19.2876C3.78017 19.3227 4.16322 19.3206 4.53595 19.2793C5.02019 19.2256 5.29173 18.8447 5.27005 18.3346C5.25043 17.8824 4.9283 17.5499 4.45748 17.5117C4.28712 17.4973 4.1147 17.5086 3.9433 17.5097ZM17.1653 17.5107C17.1653 17.5097 17.1653 17.5097 17.1653 17.5086C17.028 17.5086 16.8907 17.5024 16.7544 17.5097C16.1917 17.5375 15.8634 17.8752 15.8665 18.4182C15.8696 18.9107 16.2154 19.2731 16.7338 19.2979C17.058 19.3134 17.3863 19.3144 17.7095 19.2876C18.1885 19.2473 18.4838 18.9138 18.4983 18.4389C18.5127 17.9474 18.2123 17.5747 17.7311 17.5158C17.5443 17.4911 17.3543 17.5107 17.1653 17.5107Z" fill="#5F33E1"/>
<path d="M21.1092 9.52772C19.6441 9.52772 18.2017 9.58657 16.7686 9.49365C16.3123 9.46371 15.8105 9.10544 15.4532 8.76678C14.619 7.9759 13.8766 7.09105 13.0672 6.27332C11.7012 4.89289 9.42971 4.88256 8.05547 6.2599C7.31414 7.0002 6.61721 7.78489 5.91925 8.56751C5.3235 9.23553 4.60076 9.5907 3.7025 9.58967C2.4852 9.58657 1.26789 9.58864 0 9.58864C0.110476 7.98416 0.763008 6.76892 2.07014 5.94086C2.82695 5.46179 3.67049 5.25323 4.57082 5.25839C6.25481 5.26768 7.93983 5.26149 9.70951 5.26149C9.70951 5.05292 9.70951 4.87224 9.70951 4.69155C9.70951 3.64255 9.70745 2.59251 9.71054 1.5435C9.71261 0.391244 10.7048 -0.309815 11.7487 0.135187C12.6614 0.524435 13.5669 0.940527 14.4383 1.41237C14.6716 1.53834 14.9009 1.9121 14.8988 2.17022C14.8978 2.42731 14.6624 2.78868 14.4269 2.91981C13.6939 3.32764 12.904 3.63429 12.1493 4.00598C11.3233 4.41278 11.4028 4.1433 11.4513 5.25942C11.6279 5.25942 11.8086 5.25942 11.9903 5.25942C13.5731 5.25942 15.1559 5.24187 16.7387 5.26355C19.0473 5.29453 20.8015 6.89695 21.1247 9.22727C21.1391 9.32432 21.1154 9.42551 21.1092 9.52772Z" fill="#B5A0F3"/>
<path d="M11.4259 20.9868C10.8457 20.9868 10.3191 20.9868 9.70993 20.9868C9.70993 20.6554 9.70993 20.3198 9.70993 19.9843C9.70993 19.1769 9.70167 18.3695 9.71303 17.5621C9.72129 17.0159 10.0661 16.6824 10.5793 16.6876C11.0904 16.6927 11.4208 17.0283 11.4239 17.5734C11.4311 18.703 11.4259 19.8325 11.4259 20.9868Z" fill="#5F33E1"/>
</svg>
